<svg width="26" height="26" viewBox="0 0 26 26" fill="none" xmlns="http://www.w3.org/2000/svg">
<path d="M15.2857 19.2868L15.6731 21.2251C15.7249 21.4842 15.8648 21.7173 16.0691 21.8848C16.2734 22.0524 16.5295 22.1439 16.7937 22.1439H17.3085C17.7049 22.1439 18.089 22.2812 18.3955 22.5325C18.702 22.7838 18.912 23.1336 18.9897 23.5222L19.0125 23.6342C19.0457 23.8001 19.0416 23.9712 19.0006 24.1353C18.9596 24.2993 18.8827 24.4523 18.7755 24.583C18.6682 24.7138 18.5333 24.8191 18.3804 24.8914C18.2275 24.9637 18.0605 25.0012 17.8914 25.0011H8.10852C7.9394 25.0012 7.77238 24.9637 7.6195 24.8914C7.46662 24.8191 7.33168 24.7138 7.22443 24.583C7.11718 24.4523 7.04029 24.2993 6.99929 24.1353C6.9583 23.9712 6.95423 23.8001 6.98738 23.6342L7.01023 23.5222C7.0879 23.1337 7.29778 22.784 7.60417 22.5327C7.91057 22.2814 8.29455 22.1441 8.69081 22.1439H9.20509C9.46939 22.1441 9.72556 22.0525 9.92998 21.885C10.1344 21.7175 10.2744 21.4843 10.3262 21.2251L10.7142 19.2868" stroke="#D41CEE" stroke-linejoin="round"/>
<path d="M1.25371 16.4537C1.388 17.8983 2.53371 18.9594 3.98171 19.0497C5.82457 19.164 8.77486 19.2857 13 19.2857C17.2251 19.2857 20.1754 19.1646 22.0183 19.0497C23.4663 18.9594 24.612 17.8983 24.7463 16.4537C24.8777 15.0389 25 12.964 25 10.1429C25 7.32171 24.8777 5.24686 24.7463 3.832C24.612 2.38743 23.4663 1.32629 22.0183 1.236C20.1754 1.12171 17.2251 1 13 1C8.77486 1 5.82457 1.12171 3.98171 1.236C2.53371 1.32629 1.388 2.38743 1.25371 3.832C1.12229 5.24686 1 7.32171 1 10.1429C1 12.964 1.12229 15.0389 1.25371 16.4537Z" stroke="#D41CEE"/>
<path d="M9.28577 1.28571V19" stroke="#D41CEE" stroke-linecap="round" stroke-linejoin="round"/>
<path d="M4.42859 5.57141H6.14287" stroke="#D41CEE" stroke-linecap="round" stroke-linejoin="round"/>
<path d="M12.4286 5.57141H21.5714" stroke="#D41CEE" stroke-linecap="round" stroke-linejoin="round"/>
<path d="M4.42859 9.57141H6.14287" stroke="#D41CEE" stroke-linecap="round" stroke-linejoin="round"/>
<path d="M12.4286 9.57141H21.5714" stroke="#D41CEE" stroke-linecap="round" stroke-linejoin="round"/>
<path d="M12.4286 13.5714H19.2857" stroke="#D41CEE" stroke-linecap="round" stroke-linejoin="round"/>
</svg>
