<svg width="531" height="390" viewBox="0 0 531 390" fill="none" xmlns="http://www.w3.org/2000/svg">
<line y1="-1" x2="59.0931" y2="-1" transform="matrix(-0.913812 -0.406138 -0.406138 0.913812 146 220)" stroke="#015799" stroke-width="2"/>
<line y1="-1" x2="60.9262" y2="-1" transform="matrix(0.919145 -0.393919 -0.393919 -0.919145 37 218)" stroke="#015799" stroke-width="2"/>
<path d="M266.5 46.5L531 192V115.5L275 11.5C273.167 9.83333 267.9 6.1 261.5 4.5C255.1 2.9 248.167 6.83333 245.5 8.99999H110C103.667 2.16666 89.9 -6.90001 85.5 11.5C81.1 29.9 98.3333 28.1667 107.5 25L239.5 39C241.167 40.5 245.8 44.1 251 46.5C256.2 48.9 263.5 47.5 266.5 46.5Z" fill="#015799"/>
<line y1="-1.5" x2="144.347" y2="-1.5" transform="matrix(-0.0692776 0.997597 0.997597 0.0692776 107 22)" stroke="#015799" stroke-width="3"/>
<line y1="-1.5" x2="144.17" y2="-1.5" transform="matrix(0.0485538 0.998821 0.998821 -0.0485538 90 22)" stroke="#015799" stroke-width="3"/>
<path d="M103.459 164.5H88.2629C86.9235 164.5 85.7254 165.389 85.6065 166.723C85.2406 170.829 86.3873 177.371 93 182L95.5 186.5C96 187.5 97 190 97 192C97 193.545 96.0055 194.791 95.1689 195.509C94.7562 195.863 94.2128 196 93.6691 196H90.8604C90.2981 196 89.7472 195.842 89.2704 195.544L86.4206 193.763C86.1539 193.596 85.9743 193.32 85.9299 193.009L85.7792 191.954C85.6357 190.95 84.1959 190.923 84.0144 191.921C84.0048 191.973 84 192.027 84 192.081V195.639C84 196.504 84.3735 197.327 85.0245 197.896L87.5101 200.071C87.833 200.354 88.2126 200.564 88.6236 200.687L92.1773 201.753C92.715 201.914 93.2871 201.922 93.8287 201.774L97.8337 200.682C98.2722 200.562 98.6778 200.344 99.0198 200.045L101.734 197.671C102.231 197.236 102.57 196.649 102.7 196.001L103.388 192.562C103.462 192.191 103.465 191.809 103.398 191.437L102.645 187.299C102.55 186.776 102.318 186.287 101.971 185.883L99.5 183L98.5 182C101.379 180.333 106.545 175.167 106.257 167.028C106.205 165.562 104.925 164.5 103.459 164.5Z" fill="#015799"/>
<g filter="url(#filter0_d_3_115)">
<path d="M173.5 338.5V250C173.5 229.565 156.935 213 136.5 213H47C26.0132 213 9 230.013 9 251V338.5C9 359.487 26.0132 376.5 47 376.5H135.5C156.487 376.5 173.5 359.487 173.5 338.5Z" fill="white"/>
</g>
<path d="M137 238.5H103L46 294.5L63.5 312L137 238.5Z" fill="#58C4F6"/>
<path d="M90 303.5L107.5 321.5L136.5 291H102L90 303.5Z" fill="#58C4F6"/>
<path d="M107.5 321.5L90 338.5L102 350.5H136.5L107.5 321.5Z" fill="#58C4F6"/>
<path d="M72.5 321.5L90 338.5L107.5 321.5L90 303.5L72.5 321.5Z" fill="#0576AA"/>
<defs>
<filter id="filter0_d_3_115" x="0.3" y="208.3" width="181.9" height="180.9" filterUnits="userSpaceOnUse" color-interpolation-filters="sRGB">
<feFlood flood-opacity="0" result="BackgroundImageFix"/>
<feColorMatrix in="SourceAlpha" type="matrix" values="0 0 0 0 0 0 0 0 0 0 0 0 0 0 0 0 0 0 127 0" result="hardAlpha"/>
<feOffset dy="4"/>
<feGaussianBlur stdDeviation="4.35"/>
<feComposite in2="hardAlpha" operator="out"/>
<feColorMatrix type="matrix" values="0 0 0 0 0 0 0 0 0 0 0 0 0 0 0 0 0 0 0.14 0"/>
<feBlend mode="normal" in2="BackgroundImageFix" result="effect1_dropShadow_3_115"/>
<feBlend mode="normal" in="SourceGraphic" in2="effect1_dropShadow_3_115" result="shape"/>
</filter>
</defs>
</svg>
