<svg width="1110" height="75" viewBox="0 0 1110 75" fill="none" xmlns="http://www.w3.org/2000/svg">
<mask id="path-1-outside-1_1_2" maskUnits="userSpaceOnUse" x="-2" y="-2" width="1114" height="79" fill="black">
<rect fill="white" x="-2" y="-2" width="1114" height="79"/>
<path d="M0.336 73V1.47999H23.664C31.408 1.47999 38.128 3.016 43.824 6.088C49.52 9.16 53.936 13.384 57.072 18.76C60.208 24.136 61.776 30.28 61.776 37.192C61.776 44.104 60.208 50.28 57.072 55.72C53.936 61.096 49.52 65.32 43.824 68.392C38.128 71.464 31.408 73 23.664 73H0.336ZM15.216 60.04H24.048C28.72 60.04 32.752 59.112 36.144 57.256C39.536 55.336 42.16 52.68 44.016 49.288C45.936 45.832 46.896 41.8 46.896 37.192C46.896 32.52 45.936 28.488 44.016 25.096C42.16 21.704 39.536 19.08 36.144 17.224C32.752 15.368 28.72 14.44 24.048 14.44H15.216V60.04ZM114.793 74.152C109.417 74.152 104.425 73.224 99.8168 71.368C95.2088 69.512 91.1768 66.92 87.7208 63.592C84.3288 60.2 81.6728 56.264 79.7528 51.784C77.8328 47.304 76.8728 42.44 76.8728 37.192C76.8728 31.944 77.8008 27.08 79.6568 22.6C81.5768 18.12 84.2328 14.216 87.6248 10.888C91.0808 7.56 95.1128 4.96799 99.7208 3.112C104.329 1.256 109.353 0.327997 114.793 0.327997C120.233 0.327997 125.257 1.256 129.865 3.112C134.473 4.96799 138.473 7.56 141.865 10.888C145.321 14.216 147.977 18.12 149.833 22.6C151.753 27.08 152.713 31.944 152.713 37.192C152.713 42.44 151.753 47.304 149.833 51.784C147.913 56.264 145.225 60.2 141.769 63.592C138.377 66.92 134.377 69.512 129.769 71.368C125.161 73.224 120.169 74.152 114.793 74.152ZM114.793 60.712C118.057 60.712 121.065 60.136 123.817 58.984C126.633 57.832 129.097 56.232 131.209 54.184C133.321 52.072 134.953 49.576 136.105 46.696C137.257 43.816 137.833 40.648 137.833 37.192C137.833 33.736 137.257 30.6 136.105 27.784C134.953 24.904 133.321 22.408 131.209 20.296C129.097 18.184 126.633 16.584 123.817 15.496C121.065 14.344 118.057 13.768 114.793 13.768C111.529 13.768 108.489 14.344 105.673 15.496C102.921 16.584 100.489 18.184 98.3768 20.296C96.2648 22.408 94.6328 24.904 93.4808 27.784C92.3288 30.6 91.7528 33.736 91.7528 37.192C91.7528 40.648 92.3288 43.816 93.4808 46.696C94.6328 49.576 96.2648 52.072 98.3768 54.184C100.489 56.232 102.921 57.832 105.673 58.984C108.489 60.136 111.529 60.712 114.793 60.712ZM182.511 73L163.791 1.47999H179.919L194.031 61.384H189.711L204.591 1.47999H219.951L234.831 61.384H230.511L244.623 1.47999H260.751L242.031 73H224.751L209.775 15.4H214.767L199.791 73H182.511ZM275.845 73V1.47999H287.269L325.669 52.072L319.525 53.512V1.47999H334.405V73H322.885L285.157 22.024L290.725 20.584V73H275.845ZM354.775 73V1.47999H369.655V60.04H399.895V73H354.775ZM448.888 74.152C443.512 74.152 438.52 73.224 433.912 71.368C429.304 69.512 425.272 66.92 421.816 63.592C418.424 60.2 415.768 56.264 413.848 51.784C411.928 47.304 410.968 42.44 410.968 37.192C410.968 31.944 411.896 27.08 413.752 22.6C415.672 18.12 418.328 14.216 421.72 10.888C425.176 7.56 429.208 4.96799 433.816 3.112C438.424 1.256 443.448 0.327997 448.888 0.327997C454.328 0.327997 459.352 1.256 463.96 3.112C468.568 4.96799 472.568 7.56 475.96 10.888C479.416 14.216 482.072 18.12 483.928 22.6C485.848 27.08 486.808 31.944 486.808 37.192C486.808 42.44 485.848 47.304 483.928 51.784C482.008 56.264 479.32 60.2 475.864 63.592C472.472 66.92 468.472 69.512 463.864 71.368C459.256 73.224 454.264 74.152 448.888 74.152ZM448.888 60.712C452.152 60.712 455.16 60.136 457.912 58.984C460.728 57.832 463.192 56.232 465.304 54.184C467.416 52.072 469.048 49.576 470.2 46.696C471.352 43.816 471.928 40.648 471.928 37.192C471.928 33.736 471.352 30.6 470.2 27.784C469.048 24.904 467.416 22.408 465.304 20.296C463.192 18.184 460.728 16.584 457.912 15.496C455.16 14.344 452.152 13.768 448.888 13.768C445.624 13.768 442.584 14.344 439.768 15.496C437.016 16.584 434.584 18.184 432.472 20.296C430.36 22.408 428.728 24.904 427.576 27.784C426.424 30.6 425.848 33.736 425.848 37.192C425.848 40.648 426.424 43.816 427.576 46.696C428.728 49.576 430.36 52.072 432.472 54.184C434.584 56.232 437.016 57.832 439.768 58.984C442.584 60.136 445.624 60.712 448.888 60.712ZM496.855 73L521.047 1.47999H540.823L565.015 73H548.791L543.991 58.408H517.783L512.983 73H496.855ZM521.911 45.448H539.863L528.919 11.656H532.951L521.911 45.448ZM580.127 73V1.47999H603.455C611.199 1.47999 617.919 3.016 623.615 6.088C629.311 9.16 633.727 13.384 636.863 18.76C639.999 24.136 641.567 30.28 641.567 37.192C641.567 44.104 639.999 50.28 636.863 55.72C633.727 61.096 629.311 65.32 623.615 68.392C617.919 71.464 611.199 73 603.455 73H580.127ZM595.007 60.04H603.839C608.511 60.04 612.543 59.112 615.935 57.256C619.327 55.336 621.951 52.68 623.807 49.288C625.727 45.832 626.687 41.8 626.687 37.192C626.687 32.52 625.727 28.488 623.807 25.096C621.951 21.704 619.327 19.08 615.935 17.224C612.543 15.368 608.511 14.44 603.839 14.44H595.007V60.04ZM683.706 73V1.47999H711.066C715.994 1.47999 720.346 2.34399 724.122 4.07199C727.962 5.8 730.97 8.36 733.146 11.752C735.322 15.144 736.41 19.336 736.41 24.328C736.41 29.192 735.29 33.352 733.05 36.808C730.81 40.2 727.802 42.76 724.026 44.488L740.346 73H723.642L705.978 41.416L715.578 47.08H698.586V73H683.706ZM698.586 34.12H711.162C713.274 34.12 715.098 33.704 716.634 32.872C718.17 32.04 719.354 30.888 720.186 29.416C721.082 27.944 721.53 26.248 721.53 24.328C721.53 22.344 721.082 20.616 720.186 19.144C719.354 17.672 718.17 16.52 716.634 15.688C715.098 14.856 713.274 14.44 711.162 14.44H698.586V34.12ZM755.417 73V1.47999H803.513V14.44H770.297V30.664H801.593V43.624H770.297V60.04H803.513V73H755.417ZM845.644 74.152C841.164 74.152 836.94 73.352 832.972 71.752C829.068 70.088 825.676 67.752 822.796 64.744C819.98 61.736 817.868 58.184 816.46 54.088L828.652 48.616C830.444 52.52 832.908 55.592 836.044 57.832C839.244 60.072 842.764 61.192 846.604 61.192C848.652 61.192 850.412 60.872 851.884 60.232C853.356 59.592 854.508 58.728 855.34 57.64C856.172 56.488 856.588 55.144 856.588 53.608C856.588 51.944 856.076 50.536 855.052 49.384C854.028 48.168 852.428 47.208 850.252 46.504L836.236 41.896C830.54 40.04 826.252 37.416 823.372 34.024C820.492 30.568 819.052 26.44 819.052 21.64C819.052 17.416 820.076 13.704 822.124 10.504C824.236 7.304 827.148 4.808 830.86 3.016C834.636 1.224 838.956 0.327997 843.82 0.327997C848.108 0.327997 852.076 1.064 855.724 2.536C859.372 4.008 862.508 6.088 865.132 8.776C867.82 11.464 869.836 14.696 871.18 18.472L859.084 23.944C857.74 20.616 855.724 18.024 853.036 16.168C850.348 14.248 847.276 13.288 843.82 13.288C841.836 13.288 840.076 13.608 838.54 14.248C837.004 14.888 835.82 15.816 834.988 17.032C834.156 18.184 833.74 19.528 833.74 21.064C833.74 22.728 834.284 24.2 835.372 25.48C836.46 26.696 838.092 27.656 840.268 28.36L853.996 32.776C859.756 34.632 864.044 37.224 866.86 40.552C869.74 43.88 871.18 47.944 871.18 52.744C871.18 56.904 870.092 60.616 867.916 63.88C865.74 67.08 862.732 69.608 858.892 71.464C855.116 73.256 850.7 74.152 845.644 74.152ZM917.881 74.152C912.249 74.152 907.225 72.968 902.809 70.6C898.393 68.232 894.905 65 892.345 60.904C889.849 56.744 888.601 52.04 888.601 46.792V1.47999H903.481V45.832C903.481 48.648 904.089 51.208 905.305 53.512C906.585 55.752 908.313 57.512 910.489 58.792C912.665 60.072 915.129 60.712 917.881 60.712C920.697 60.712 923.161 60.072 925.273 58.792C927.449 57.512 929.145 55.752 930.361 53.512C931.641 51.208 932.281 48.648 932.281 45.832V1.47999H947.161V46.792C947.161 52.04 945.881 56.744 943.321 60.904C940.825 65 937.369 68.232 932.953 70.6C928.537 72.968 923.513 74.152 917.881 74.152ZM966.614 73V1.47999H981.014L1007.8 37H1001.08L1027.09 1.47999H1041.49V73H1026.61V17.896L1032.57 19.24L1005.01 54.76H1003.09L976.502 19.24L981.494 17.896V73H966.614ZM1061.86 73V1.47999H1109.95V14.44H1076.74V30.664H1108.03V43.624H1076.74V60.04H1109.95V73H1061.86Z"/>
</mask>
<path d="M0.336 73V1.47999H23.664C31.408 1.47999 38.128 3.016 43.824 6.088C49.52 9.16 53.936 13.384 57.072 18.76C60.208 24.136 61.776 30.28 61.776 37.192C61.776 44.104 60.208 50.28 57.072 55.72C53.936 61.096 49.52 65.32 43.824 68.392C38.128 71.464 31.408 73 23.664 73H0.336ZM15.216 60.04H24.048C28.72 60.04 32.752 59.112 36.144 57.256C39.536 55.336 42.16 52.68 44.016 49.288C45.936 45.832 46.896 41.8 46.896 37.192C46.896 32.52 45.936 28.488 44.016 25.096C42.16 21.704 39.536 19.08 36.144 17.224C32.752 15.368 28.72 14.44 24.048 14.44H15.216V60.04ZM114.793 74.152C109.417 74.152 104.425 73.224 99.8168 71.368C95.2088 69.512 91.1768 66.92 87.7208 63.592C84.3288 60.2 81.6728 56.264 79.7528 51.784C77.8328 47.304 76.8728 42.44 76.8728 37.192C76.8728 31.944 77.8008 27.08 79.6568 22.6C81.5768 18.12 84.2328 14.216 87.6248 10.888C91.0808 7.56 95.1128 4.96799 99.7208 3.112C104.329 1.256 109.353 0.327997 114.793 0.327997C120.233 0.327997 125.257 1.256 129.865 3.112C134.473 4.96799 138.473 7.56 141.865 10.888C145.321 14.216 147.977 18.12 149.833 22.6C151.753 27.08 152.713 31.944 152.713 37.192C152.713 42.44 151.753 47.304 149.833 51.784C147.913 56.264 145.225 60.2 141.769 63.592C138.377 66.92 134.377 69.512 129.769 71.368C125.161 73.224 120.169 74.152 114.793 74.152ZM114.793 60.712C118.057 60.712 121.065 60.136 123.817 58.984C126.633 57.832 129.097 56.232 131.209 54.184C133.321 52.072 134.953 49.576 136.105 46.696C137.257 43.816 137.833 40.648 137.833 37.192C137.833 33.736 137.257 30.6 136.105 27.784C134.953 24.904 133.321 22.408 131.209 20.296C129.097 18.184 126.633 16.584 123.817 15.496C121.065 14.344 118.057 13.768 114.793 13.768C111.529 13.768 108.489 14.344 105.673 15.496C102.921 16.584 100.489 18.184 98.3768 20.296C96.2648 22.408 94.6328 24.904 93.4808 27.784C92.3288 30.6 91.7528 33.736 91.7528 37.192C91.7528 40.648 92.3288 43.816 93.4808 46.696C94.6328 49.576 96.2648 52.072 98.3768 54.184C100.489 56.232 102.921 57.832 105.673 58.984C108.489 60.136 111.529 60.712 114.793 60.712ZM182.511 73L163.791 1.47999H179.919L194.031 61.384H189.711L204.591 1.47999H219.951L234.831 61.384H230.511L244.623 1.47999H260.751L242.031 73H224.751L209.775 15.4H214.767L199.791 73H182.511ZM275.845 73V1.47999H287.269L325.669 52.072L319.525 53.512V1.47999H334.405V73H322.885L285.157 22.024L290.725 20.584V73H275.845ZM354.775 73V1.47999H369.655V60.04H399.895V73H354.775ZM448.888 74.152C443.512 74.152 438.52 73.224 433.912 71.368C429.304 69.512 425.272 66.92 421.816 63.592C418.424 60.2 415.768 56.264 413.848 51.784C411.928 47.304 410.968 42.44 410.968 37.192C410.968 31.944 411.896 27.08 413.752 22.6C415.672 18.12 418.328 14.216 421.72 10.888C425.176 7.56 429.208 4.96799 433.816 3.112C438.424 1.256 443.448 0.327997 448.888 0.327997C454.328 0.327997 459.352 1.256 463.96 3.112C468.568 4.96799 472.568 7.56 475.96 10.888C479.416 14.216 482.072 18.12 483.928 22.6C485.848 27.08 486.808 31.944 486.808 37.192C486.808 42.44 485.848 47.304 483.928 51.784C482.008 56.264 479.32 60.2 475.864 63.592C472.472 66.92 468.472 69.512 463.864 71.368C459.256 73.224 454.264 74.152 448.888 74.152ZM448.888 60.712C452.152 60.712 455.16 60.136 457.912 58.984C460.728 57.832 463.192 56.232 465.304 54.184C467.416 52.072 469.048 49.576 470.2 46.696C471.352 43.816 471.928 40.648 471.928 37.192C471.928 33.736 471.352 30.6 470.2 27.784C469.048 24.904 467.416 22.408 465.304 20.296C463.192 18.184 460.728 16.584 457.912 15.496C455.16 14.344 452.152 13.768 448.888 13.768C445.624 13.768 442.584 14.344 439.768 15.496C437.016 16.584 434.584 18.184 432.472 20.296C430.36 22.408 428.728 24.904 427.576 27.784C426.424 30.6 425.848 33.736 425.848 37.192C425.848 40.648 426.424 43.816 427.576 46.696C428.728 49.576 430.36 52.072 432.472 54.184C434.584 56.232 437.016 57.832 439.768 58.984C442.584 60.136 445.624 60.712 448.888 60.712ZM496.855 73L521.047 1.47999H540.823L565.015 73H548.791L543.991 58.408H517.783L512.983 73H496.855ZM521.911 45.448H539.863L528.919 11.656H532.951L521.911 45.448ZM580.127 73V1.47999H603.455C611.199 1.47999 617.919 3.016 623.615 6.088C629.311 9.16 633.727 13.384 636.863 18.76C639.999 24.136 641.567 30.28 641.567 37.192C641.567 44.104 639.999 50.28 636.863 55.72C633.727 61.096 629.311 65.32 623.615 68.392C617.919 71.464 611.199 73 603.455 73H580.127ZM595.007 60.04H603.839C608.511 60.04 612.543 59.112 615.935 57.256C619.327 55.336 621.951 52.68 623.807 49.288C625.727 45.832 626.687 41.8 626.687 37.192C626.687 32.52 625.727 28.488 623.807 25.096C621.951 21.704 619.327 19.08 615.935 17.224C612.543 15.368 608.511 14.44 603.839 14.44H595.007V60.04ZM683.706 73V1.47999H711.066C715.994 1.47999 720.346 2.34399 724.122 4.07199C727.962 5.8 730.97 8.36 733.146 11.752C735.322 15.144 736.41 19.336 736.41 24.328C736.41 29.192 735.29 33.352 733.05 36.808C730.81 40.2 727.802 42.76 724.026 44.488L740.346 73H723.642L705.978 41.416L715.578 47.08H698.586V73H683.706ZM698.586 34.12H711.162C713.274 34.12 715.098 33.704 716.634 32.872C718.17 32.04 719.354 30.888 720.186 29.416C721.082 27.944 721.53 26.248 721.53 24.328C721.53 22.344 721.082 20.616 720.186 19.144C719.354 17.672 718.17 16.52 716.634 15.688C715.098 14.856 713.274 14.44 711.162 14.44H698.586V34.12ZM755.417 73V1.47999H803.513V14.44H770.297V30.664H801.593V43.624H770.297V60.04H803.513V73H755.417ZM845.644 74.152C841.164 74.152 836.94 73.352 832.972 71.752C829.068 70.088 825.676 67.752 822.796 64.744C819.98 61.736 817.868 58.184 816.46 54.088L828.652 48.616C830.444 52.52 832.908 55.592 836.044 57.832C839.244 60.072 842.764 61.192 846.604 61.192C848.652 61.192 850.412 60.872 851.884 60.232C853.356 59.592 854.508 58.728 855.34 57.64C856.172 56.488 856.588 55.144 856.588 53.608C856.588 51.944 856.076 50.536 855.052 49.384C854.028 48.168 852.428 47.208 850.252 46.504L836.236 41.896C830.54 40.04 826.252 37.416 823.372 34.024C820.492 30.568 819.052 26.44 819.052 21.64C819.052 17.416 820.076 13.704 822.124 10.504C824.236 7.304 827.148 4.808 830.86 3.016C834.636 1.224 838.956 0.327997 843.82 0.327997C848.108 0.327997 852.076 1.064 855.724 2.536C859.372 4.008 862.508 6.088 865.132 8.776C867.82 11.464 869.836 14.696 871.18 18.472L859.084 23.944C857.74 20.616 855.724 18.024 853.036 16.168C850.348 14.248 847.276 13.288 843.82 13.288C841.836 13.288 840.076 13.608 838.54 14.248C837.004 14.888 835.82 15.816 834.988 17.032C834.156 18.184 833.74 19.528 833.74 21.064C833.74 22.728 834.284 24.2 835.372 25.48C836.46 26.696 838.092 27.656 840.268 28.36L853.996 32.776C859.756 34.632 864.044 37.224 866.86 40.552C869.74 43.88 871.18 47.944 871.18 52.744C871.18 56.904 870.092 60.616 867.916 63.88C865.74 67.08 862.732 69.608 858.892 71.464C855.116 73.256 850.7 74.152 845.644 74.152ZM917.881 74.152C912.249 74.152 907.225 72.968 902.809 70.6C898.393 68.232 894.905 65 892.345 60.904C889.849 56.744 888.601 52.04 888.601 46.792V1.47999H903.481V45.832C903.481 48.648 904.089 51.208 905.305 53.512C906.585 55.752 908.313 57.512 910.489 58.792C912.665 60.072 915.129 60.712 917.881 60.712C920.697 60.712 923.161 60.072 925.273 58.792C927.449 57.512 929.145 55.752 930.361 53.512C931.641 51.208 932.281 48.648 932.281 45.832V1.47999H947.161V46.792C947.161 52.04 945.881 56.744 943.321 60.904C940.825 65 937.369 68.232 932.953 70.6C928.537 72.968 923.513 74.152 917.881 74.152ZM966.614 73V1.47999H981.014L1007.8 37H1001.08L1027.09 1.47999H1041.49V73H1026.61V17.896L1032.57 19.24L1005.01 54.76H1003.09L976.502 19.24L981.494 17.896V73H966.614ZM1061.86 73V1.47999H1109.95V14.44H1076.74V30.664H1108.03V43.624H1076.74V60.04H1109.95V73H1061.86Z" fill="url(#paint0_linear_1_2)"/>
<path d="M0.336 73H-1.664V75H0.336V73ZM0.336 1.47999V-0.520006H-1.664V1.47999H0.336ZM43.824 6.088L42.8746 7.8483L42.8746 7.8483L43.824 6.088ZM57.072 18.76L55.3444 19.7677L55.3444 19.7677L57.072 18.76ZM57.072 55.72L58.7996 56.7278L58.8047 56.7189L57.072 55.72ZM43.824 68.392L44.7734 70.1523L44.7734 70.1523L43.824 68.392ZM15.216 60.04H13.216V62.04H15.216V60.04ZM36.144 57.256L37.104 59.0105L37.1167 59.0036L37.1292 58.9965L36.144 57.256ZM44.016 49.288L42.2677 48.3167L42.2615 48.328L44.016 49.288ZM44.016 25.096L42.2615 26.056L42.2684 26.0687L42.2755 26.0812L44.016 25.096ZM15.216 14.44V12.44H13.216V14.44H15.216ZM2.336 73V1.47999H-1.664V73H2.336ZM0.336 3.47999H23.664V-0.520006H0.336V3.47999ZM23.664 3.47999C31.1415 3.47999 37.5226 4.9618 42.8746 7.8483L44.7734 4.32769C38.7334 1.07019 31.6745 -0.520006 23.664 -0.520006V3.47999ZM42.8746 7.8483C48.2605 10.753 52.4013 14.7224 55.3444 19.7677L58.7996 17.7523C55.4707 12.0456 50.7795 7.56695 44.7734 4.32769L42.8746 7.8483ZM55.3444 19.7677C58.2828 24.805 59.776 30.594 59.776 37.192H63.776C63.776 29.966 62.1332 23.467 58.7996 17.7523L55.3444 19.7677ZM59.776 37.192C59.776 43.7897 58.2829 49.6149 55.3393 54.7211L58.8047 56.7189C62.1331 50.9451 63.776 44.4183 63.776 37.192H59.776ZM55.3444 54.7123C52.4013 59.7576 48.2605 63.727 42.8746 66.6317L44.7734 70.1523C50.7795 66.913 55.4707 62.4344 58.7996 56.7277L55.3444 54.7123ZM42.8746 66.6317C37.5226 69.5182 31.1415 71 23.664 71V75C31.6745 75 38.7334 73.4098 44.7734 70.1523L42.8746 66.6317ZM23.664 71H0.336V75H23.664V71ZM15.216 62.04H24.048V58.04H15.216V62.04ZM24.048 62.04C28.986 62.04 33.3622 61.0579 37.104 59.0105L35.184 55.5015C32.1418 57.1661 28.454 58.04 24.048 58.04V62.04ZM37.1292 58.9965C40.8425 56.8946 43.7342 53.9695 45.7705 50.248L42.2615 48.328C40.5858 51.3905 38.2295 53.7774 35.1588 55.5155L37.1292 58.9965ZM45.7643 50.2593C47.8749 46.4603 48.896 42.0832 48.896 37.192H44.896C44.896 41.5168 43.9971 45.2037 42.2677 48.3167L45.7643 50.2593ZM48.896 37.192C48.896 32.2433 47.8775 27.8578 45.7565 24.1108L42.2755 26.0812C43.9945 29.1182 44.896 32.7967 44.896 37.192H48.896ZM45.7705 24.136C43.7311 20.4087 40.8313 17.5089 37.104 15.4695L35.184 18.9785C38.2407 20.651 40.589 22.9993 42.2615 26.056L45.7705 24.136ZM37.104 15.4695C33.3622 13.4221 28.986 12.44 24.048 12.44V16.44C28.454 16.44 32.1418 17.3139 35.184 18.9785L37.104 15.4695ZM24.048 12.44H15.216V16.44H24.048V12.44ZM13.216 14.44V60.04H17.216V14.44H13.216ZM99.8168 71.368L100.564 69.5128L100.564 69.5128L99.8168 71.368ZM87.7208 63.592L86.3065 65.0062L86.3199 65.0196L86.3335 65.0326L87.7208 63.592ZM79.7528 51.784L81.591 50.9962L81.591 50.9962L79.7528 51.784ZM79.6568 22.6L77.8185 21.8122L77.8137 21.8233L77.809 21.8345L79.6568 22.6ZM87.6248 10.888L86.2375 9.44736L86.2307 9.45384L86.2241 9.46038L87.6248 10.888ZM129.865 3.112L129.118 4.96717L129.118 4.96717L129.865 3.112ZM141.865 10.888L140.464 12.3156L140.471 12.3222L140.477 12.3286L141.865 10.888ZM149.833 22.6L147.985 23.3655L147.99 23.3767L147.994 23.3878L149.833 22.6ZM149.833 51.784L147.994 50.9962L147.994 50.9962L149.833 51.784ZM141.769 63.592L143.169 65.0196L143.17 65.0194L141.769 63.592ZM129.769 71.368L130.516 73.2232L129.769 71.368ZM123.817 58.984L123.059 57.1329L123.052 57.136L123.044 57.1391L123.817 58.984ZM131.209 54.184L132.601 55.6198L132.612 55.6091L132.623 55.5982L131.209 54.184ZM136.105 46.696L134.248 45.9532L134.248 45.9532L136.105 46.696ZM136.105 27.784L134.248 28.5268L134.251 28.534L134.254 28.5413L136.105 27.784ZM123.817 15.496L123.044 17.3409L123.07 17.3516L123.096 17.3616L123.817 15.496ZM105.673 15.496L106.408 17.3559L106.419 17.3516L106.43 17.3471L105.673 15.496ZM98.3768 20.296L96.9625 18.8818L96.9625 18.8818L98.3768 20.296ZM93.4808 27.784L95.3318 28.5413L95.3348 28.534L95.3377 28.5268L93.4808 27.784ZM93.4808 46.696L91.6238 47.4388L91.6238 47.4388L93.4808 46.696ZM98.3768 54.184L96.9625 55.5982L96.9734 55.6091L96.9845 55.6198L98.3768 54.184ZM105.673 58.984L104.9 60.8289L104.908 60.832L104.915 60.8351L105.673 58.984ZM114.793 72.152C109.652 72.152 104.916 71.2656 100.564 69.5128L99.0695 73.2232C103.934 75.1824 109.182 76.152 114.793 76.152V72.152ZM100.564 69.5128C96.1854 67.7492 92.3727 65.2951 89.108 62.1514L86.3335 65.0326C89.9808 68.5449 94.2322 71.2748 99.0695 73.2232L100.564 69.5128ZM89.135 62.1778C85.9258 58.9686 83.4125 55.2461 81.591 50.9962L77.9145 52.5718C79.933 57.2819 82.7317 61.4314 86.3065 65.0062L89.135 62.1778ZM81.591 50.9962C79.7857 46.7837 78.8728 42.1902 78.8728 37.192H74.8728C74.8728 42.6898 75.8798 47.8243 77.9145 52.5718L81.591 50.9962ZM78.8728 37.192C78.8728 32.1849 79.757 27.5835 81.5045 23.3655L77.809 21.8345C75.8445 26.5765 74.8728 31.7031 74.8728 37.192H78.8728ZM81.495 23.3878C83.315 19.1413 85.8245 15.4562 89.0254 12.3156L86.2241 9.46038C82.641 12.9758 79.8385 17.0987 77.8185 21.8122L81.495 23.3878ZM89.012 12.3286C92.2767 9.18489 96.0894 6.73078 100.468 4.96717L98.9735 1.25682C94.1361 3.20521 89.8848 5.9351 86.2375 9.44736L89.012 12.3286ZM100.468 4.96717C104.817 3.21555 109.584 2.328 114.793 2.328V-1.672C109.121 -1.672 103.841 -0.70356 98.9735 1.25682L100.468 4.96717ZM114.793 2.328C120.001 2.328 124.769 3.21555 129.118 4.96717L130.612 1.25682C125.745 -0.70356 120.464 -1.672 114.793 -1.672V2.328ZM129.118 4.96717C133.493 6.72951 137.268 9.18 140.464 12.3156L143.265 9.46038C139.677 5.93999 135.453 3.20648 130.612 1.25682L129.118 4.96717ZM140.477 12.3286C143.733 15.4636 146.233 19.137 147.985 23.3655L151.68 21.8345C149.72 17.103 146.909 12.9684 143.252 9.44736L140.477 12.3286ZM147.994 23.3878C149.8 27.6003 150.713 32.1938 150.713 37.192H154.713C154.713 31.6942 153.706 26.5597 151.671 21.8122L147.994 23.3878ZM150.713 37.192C150.713 42.1902 149.8 46.7837 147.994 50.9962L151.671 52.5718C153.706 47.8243 154.713 42.6898 154.713 37.192H150.713ZM147.994 50.9962C146.176 55.2381 143.636 58.9565 140.368 62.1646L143.17 65.0194C146.813 61.4435 149.649 57.2899 151.671 52.5718L147.994 50.9962ZM140.368 62.1644C137.172 65.3 133.397 67.7505 129.022 69.5128L130.516 73.2232C135.357 71.2735 139.581 68.54 143.169 65.0196L140.368 62.1644ZM129.022 69.5128C124.67 71.2656 119.934 72.152 114.793 72.152V76.152C120.404 76.152 125.652 75.1824 130.516 73.2232L129.022 69.5128ZM114.793 62.712C118.297 62.712 121.57 62.0925 124.589 60.8289L123.044 57.1391C120.559 58.1795 117.817 58.712 114.793 58.712V62.712ZM124.574 60.8351C127.618 59.5898 130.3 57.8516 132.601 55.6198L129.816 52.7482C127.894 54.6124 125.647 56.0742 123.059 57.1329L124.574 60.8351ZM132.623 55.5982C134.934 53.2873 136.713 50.5604 137.962 47.4388L134.248 45.9532C133.192 48.5916 131.708 50.8567 129.795 52.7698L132.623 55.5982ZM137.962 47.4388C139.218 44.297 139.833 40.8734 139.833 37.192H135.833C135.833 40.4226 135.295 43.335 134.248 45.9532L137.962 47.4388ZM139.833 37.192C139.833 33.5114 139.219 30.1136 137.956 27.0267L134.254 28.5413C135.295 31.0864 135.833 33.9606 135.833 37.192H139.833ZM137.962 27.0412C136.713 23.9196 134.934 21.1927 132.623 18.8818L129.795 21.7102C131.708 23.6233 133.192 25.8884 134.248 28.5268L137.962 27.0412ZM132.623 18.8818C130.312 16.5705 127.611 14.8178 124.538 13.6304L123.096 17.3616C125.655 18.3502 127.882 19.7975 129.795 21.7102L132.623 18.8818ZM124.589 13.6511C121.57 12.3875 118.297 11.768 114.793 11.768V15.768C117.817 15.768 120.559 16.3005 123.044 17.3409L124.589 13.6511ZM114.793 11.768C111.288 11.768 107.989 12.3876 104.915 13.6449L106.43 17.3471C108.989 16.3004 111.769 15.768 114.793 15.768V11.768ZM104.937 13.6361C101.929 14.8256 99.2661 16.5782 96.9625 18.8818L99.791 21.7102C101.711 19.7898 103.913 18.3424 106.408 17.3559L104.937 13.6361ZM96.9625 18.8818C94.6516 21.1927 92.8724 23.9196 91.6238 27.0412L95.3377 28.5268C96.3931 25.8884 97.8779 23.6233 99.791 21.7102L96.9625 18.8818ZM91.6297 27.0267C90.3669 30.1136 89.7528 33.5114 89.7528 37.192H93.7528C93.7528 33.9606 94.2906 31.0864 95.3318 28.5413L91.6297 27.0267ZM89.7528 37.192C89.7528 40.8734 90.3671 44.297 91.6238 47.4388L95.3377 45.9532C94.2904 43.335 93.7528 40.4226 93.7528 37.192H89.7528ZM91.6238 47.4388C92.8724 50.5604 94.6516 53.2873 96.9625 55.5982L99.791 52.7698C97.8779 50.8567 96.3931 48.5916 95.3377 45.9532L91.6238 47.4388ZM96.9845 55.6198C99.2783 57.8442 101.921 59.5818 104.9 60.8289L106.445 57.1391C103.92 56.0822 101.699 54.6198 99.769 52.7482L96.9845 55.6198ZM104.915 60.8351C107.989 62.0924 111.288 62.712 114.793 62.712V58.712C111.769 58.712 108.989 58.1796 106.43 57.1329L104.915 60.8351ZM182.511 73L180.576 73.5064L180.967 75H182.511V73ZM163.791 1.47999V-0.520006H161.2L161.856 1.98642L163.791 1.47999ZM179.919 1.47999L181.866 1.02139L181.503 -0.520006H179.919V1.47999ZM194.031 61.384V63.384H196.557L195.978 60.9254L194.031 61.384ZM189.711 61.384L187.77 60.9019L187.153 63.384H189.711V61.384ZM204.591 1.47999V-0.520006H203.027L202.65 0.997851L204.591 1.47999ZM219.951 1.47999L221.892 0.997851L221.515 -0.520006H219.951V1.47999ZM234.831 61.384V63.384H237.389L236.772 60.9019L234.831 61.384ZM230.511 61.384L228.564 60.9254L227.985 63.384H230.511V61.384ZM244.623 1.47999V-0.520006H243.039L242.676 1.02139L244.623 1.47999ZM260.751 1.47999L262.686 1.98642L263.342 -0.520006H260.751V1.47999ZM242.031 73V75H243.575L243.966 73.5064L242.031 73ZM224.751 73L222.815 73.5033L223.205 75H224.751V73ZM209.775 15.4V13.4H207.189L207.839 15.9033L209.775 15.4ZM214.767 15.4L216.703 15.9033L217.354 13.4H214.767V15.4ZM199.791 73V75H201.337L201.727 73.5033L199.791 73ZM184.446 72.4936L165.726 0.973564L161.856 1.98642L180.576 73.5064L184.446 72.4936ZM163.791 3.47999H179.919V-0.520006H163.791V3.47999ZM177.972 1.93859L192.084 61.8426L195.978 60.9254L181.866 1.02139L177.972 1.93859ZM194.031 59.384H189.711V63.384H194.031V59.384ZM191.652 61.8661L206.532 1.96214L202.65 0.997851L187.77 60.9019L191.652 61.8661ZM204.591 3.47999H219.951V-0.520006H204.591V3.47999ZM218.01 1.96214L232.89 61.8661L236.772 60.9019L221.892 0.997851L218.01 1.96214ZM234.831 59.384H230.511V63.384H234.831V59.384ZM232.458 61.8426L246.57 1.93859L242.676 1.02139L228.564 60.9254L232.458 61.8426ZM244.623 3.47999H260.751V-0.520006H244.623V3.47999ZM258.816 0.973564L240.096 72.4936L243.966 73.5064L262.686 1.98642L258.816 0.973564ZM242.031 71H224.751V75H242.031V71ZM226.687 72.4967L211.711 14.8967L207.839 15.9033L222.815 73.5033L226.687 72.4967ZM209.775 17.4H214.767V13.4H209.775V17.4ZM212.831 14.8967L197.855 72.4967L201.727 73.5033L216.703 15.9033L212.831 14.8967ZM199.791 71H182.511V75H199.791V71ZM275.845 73H273.845V75H275.845V73ZM275.845 1.47999V-0.520006H273.845V1.47999H275.845ZM287.269 1.47999L288.862 0.270824L288.262 -0.520006H287.269V1.47999ZM325.669 52.072L326.125 54.0192L329.124 53.3164L327.262 50.8628L325.669 52.072ZM319.525 53.512H317.525V56.0349L319.981 55.4592L319.525 53.512ZM319.525 1.47999V-0.520006H317.525V1.47999H319.525ZM334.405 1.47999H336.405V-0.520006H334.405V1.47999ZM334.405 73V75H336.405V73H334.405ZM322.885 73L321.277 74.1898L321.877 75H322.885V73ZM285.157 22.024L284.656 20.0877L281.785 20.8302L283.549 23.2138L285.157 22.024ZM290.725 20.584H292.725V18.001L290.224 18.6477L290.725 20.584ZM290.725 73V75H292.725V73H290.725ZM277.845 73V1.47999H273.845V73H277.845ZM275.845 3.47999H287.269V-0.520006H275.845V3.47999ZM285.676 2.68916L324.076 53.2812L327.262 50.8628L288.862 0.270824L285.676 2.68916ZM325.212 50.1248L319.068 51.5648L319.981 55.4592L326.125 54.0192L325.212 50.1248ZM321.525 53.512V1.47999H317.525V53.512H321.525ZM319.525 3.47999H334.405V-0.520006H319.525V3.47999ZM332.405 1.47999V73H336.405V1.47999H332.405ZM334.405 71H322.885V75H334.405V71ZM324.492 71.8102L286.764 20.8342L283.549 23.2138L321.277 74.1898L324.492 71.8102ZM285.658 23.9603L291.226 22.5203L290.224 18.6477L284.656 20.0877L285.658 23.9603ZM288.725 20.584V73H292.725V20.584H288.725ZM290.725 71H275.845V75H290.725V71ZM354.775 73H352.775V75H354.775V73ZM354.775 1.47999V-0.520006H352.775V1.47999H354.775ZM369.655 1.47999H371.655V-0.520006H369.655V1.47999ZM369.655 60.04H367.655V62.04H369.655V60.04ZM399.895 60.04H401.895V58.04H399.895V60.04ZM399.895 73V75H401.895V73H399.895ZM356.775 73V1.47999H352.775V73H356.775ZM354.775 3.47999H369.655V-0.520006H354.775V3.47999ZM367.655 1.47999V60.04H371.655V1.47999H367.655ZM369.655 62.04H399.895V58.04H369.655V62.04ZM397.895 60.04V73H401.895V60.04H397.895ZM399.895 71H354.775V75H399.895V71ZM433.912 71.368L434.659 69.5128L434.659 69.5128L433.912 71.368ZM421.816 63.592L420.402 65.0062L420.415 65.0196L420.428 65.0326L421.816 63.592ZM413.848 51.784L415.686 50.9962L415.686 50.9962L413.848 51.784ZM413.752 22.6L411.913 21.8122L411.909 21.8233L411.904 21.8345L413.752 22.6ZM421.72 10.888L420.332 9.44736L420.326 9.45384L420.319 9.46038L421.72 10.888ZM463.96 3.112L463.213 4.96717L463.213 4.96717L463.96 3.112ZM475.96 10.888L474.559 12.3156L474.566 12.3222L474.572 12.3286L475.96 10.888ZM483.928 22.6L482.08 23.3655L482.085 23.3767L482.089 23.3878L483.928 22.6ZM483.928 51.784L482.089 50.9962L482.089 50.9962L483.928 51.784ZM475.864 63.592L477.264 65.0196L477.265 65.0194L475.864 63.592ZM463.864 71.368L464.611 73.2232L463.864 71.368ZM457.912 58.984L457.154 57.1329L457.147 57.136L457.139 57.1391L457.912 58.984ZM465.304 54.184L466.696 55.6198L466.707 55.6091L466.718 55.5982L465.304 54.184ZM470.2 46.696L468.343 45.9532L468.343 45.9532L470.2 46.696ZM470.2 27.784L468.343 28.5268L468.346 28.534L468.349 28.5413L470.2 27.784ZM457.912 15.496L457.139 17.3409L457.165 17.3516L457.191 17.3616L457.912 15.496ZM439.768 15.496L440.503 17.3559L440.514 17.3516L440.525 17.3471L439.768 15.496ZM432.472 20.296L431.058 18.8818L431.058 18.8818L432.472 20.296ZM427.576 27.784L429.427 28.5413L429.43 28.534L429.433 28.5268L427.576 27.784ZM427.576 46.696L425.719 47.4388L425.719 47.4388L427.576 46.696ZM432.472 54.184L431.058 55.5982L431.068 55.6091L431.079 55.6198L432.472 54.184ZM439.768 58.984L438.995 60.8289L439.003 60.832L439.01 60.8351L439.768 58.984ZM448.888 72.152C443.747 72.152 439.011 71.2656 434.659 69.5128L433.165 73.2232C438.029 75.1824 443.277 76.152 448.888 76.152V72.152ZM434.659 69.5128C430.28 67.7492 426.468 65.2951 423.203 62.1514L420.428 65.0326C424.076 68.5449 428.327 71.2748 433.165 73.2232L434.659 69.5128ZM423.23 62.1778C420.021 58.9686 417.507 55.2461 415.686 50.9962L412.009 52.5718C414.028 57.2819 416.827 61.4314 420.402 65.0062L423.23 62.1778ZM415.686 50.9962C413.881 46.7837 412.968 42.1902 412.968 37.192H408.968C408.968 42.6898 409.975 47.8243 412.009 52.5718L415.686 50.9962ZM412.968 37.192C412.968 32.1849 413.852 27.5835 415.599 23.3655L411.904 21.8345C409.939 26.5765 408.968 31.7031 408.968 37.192H412.968ZM415.59 23.3878C417.41 19.1413 419.919 15.4562 423.12 12.3156L420.319 9.46038C416.736 12.9758 413.934 17.0987 411.913 21.8122L415.59 23.3878ZM423.107 12.3286C426.372 9.18489 430.184 6.73078 434.563 4.96717L433.069 1.25682C428.231 3.20521 423.98 5.9351 420.332 9.44736L423.107 12.3286ZM434.563 4.96717C438.912 3.21555 443.679 2.328 448.888 2.328V-1.672C443.216 -1.672 437.936 -0.70356 433.069 1.25682L434.563 4.96717ZM448.888 2.328C454.096 2.328 458.864 3.21555 463.213 4.96717L464.707 1.25682C459.84 -0.70356 454.559 -1.672 448.888 -1.672V2.328ZM463.213 4.96717C467.588 6.72951 471.363 9.18 474.559 12.3156L477.36 9.46038C473.772 5.93999 469.547 3.20648 464.707 1.25682L463.213 4.96717ZM474.572 12.3286C477.828 15.4636 480.328 19.137 482.08 23.3655L485.775 21.8345C483.815 17.103 481.004 12.9684 477.347 9.44736L474.572 12.3286ZM482.089 23.3878C483.895 27.6003 484.808 32.1938 484.808 37.192H488.808C488.808 31.6942 487.801 26.5597 485.766 21.8122L482.089 23.3878ZM484.808 37.192C484.808 42.1902 483.895 46.7837 482.089 50.9962L485.766 52.5718C487.801 47.8243 488.808 42.6898 488.808 37.192H484.808ZM482.089 50.9962C480.271 55.2381 477.731 58.9565 474.463 62.1646L477.265 65.0194C480.908 61.4435 483.744 57.2899 485.766 52.5718L482.089 50.9962ZM474.463 62.1644C471.267 65.3 467.492 67.7505 463.117 69.5128L464.611 73.2232C469.451 71.2735 473.676 68.54 477.264 65.0196L474.463 62.1644ZM463.117 69.5128C458.765 71.2656 454.029 72.152 448.888 72.152V76.152C454.499 76.152 459.747 75.1824 464.611 73.2232L463.117 69.5128ZM448.888 62.712C452.392 62.712 455.665 62.0925 458.684 60.8289L457.139 57.1391C454.654 58.1795 451.912 58.712 448.888 58.712V62.712ZM458.669 60.8351C461.713 59.5898 464.395 57.8516 466.696 55.6198L463.911 52.7482C461.989 54.6124 459.742 56.0742 457.154 57.1329L458.669 60.8351ZM466.718 55.5982C469.029 53.2873 470.808 50.5604 472.057 47.4388L468.343 45.9532C467.287 48.5916 465.803 50.8567 463.89 52.7698L466.718 55.5982ZM472.057 47.4388C473.313 44.297 473.928 40.8734 473.928 37.192H469.928C469.928 40.4226 469.39 43.335 468.343 45.9532L472.057 47.4388ZM473.928 37.192C473.928 33.5114 473.314 30.1136 472.051 27.0267L468.349 28.5413C469.39 31.0864 469.928 33.9606 469.928 37.192H473.928ZM472.057 27.0412C470.808 23.9196 469.029 21.1927 466.718 18.8818L463.89 21.7102C465.803 23.6233 467.287 25.8884 468.343 28.5268L472.057 27.0412ZM466.718 18.8818C464.407 16.5705 461.706 14.8178 458.633 13.6304L457.191 17.3616C459.75 18.3502 461.977 19.7975 463.89 21.7102L466.718 18.8818ZM458.684 13.6511C455.665 12.3875 452.392 11.768 448.888 11.768V15.768C451.912 15.768 454.654 16.3005 457.139 17.3409L458.684 13.6511ZM448.888 11.768C445.383 11.768 442.084 12.3876 439.01 13.6449L440.525 17.3471C443.084 16.3004 445.864 15.768 448.888 15.768V11.768ZM439.032 13.6361C436.024 14.8256 433.361 16.5782 431.058 18.8818L433.886 21.7102C435.806 19.7898 438.008 18.3424 440.503 17.3559L439.032 13.6361ZM431.058 18.8818C428.747 21.1927 426.967 23.9196 425.719 27.0412L429.433 28.5268C430.488 25.8884 431.973 23.6233 433.886 21.7102L431.058 18.8818ZM425.725 27.0267C424.462 30.1136 423.848 33.5114 423.848 37.192H427.848C427.848 33.9606 428.386 31.0864 429.427 28.5413L425.725 27.0267ZM423.848 37.192C423.848 40.8734 424.462 44.297 425.719 47.4388L429.433 45.9532C428.385 43.335 427.848 40.4226 427.848 37.192H423.848ZM425.719 47.4388C426.967 50.5604 428.747 53.2873 431.058 55.5982L433.886 52.7698C431.973 50.8567 430.488 48.5916 429.433 45.9532L425.719 47.4388ZM431.079 55.6198C433.373 57.8442 436.016 59.5818 438.995 60.8289L440.54 57.1391C438.015 56.0822 435.794 54.6198 433.864 52.7482L431.079 55.6198ZM439.01 60.8351C442.084 62.0924 445.383 62.712 448.888 62.712V58.712C445.864 58.712 443.084 58.1796 440.525 57.1329L439.01 60.8351ZM496.855 73L494.96 72.3592L494.067 75H496.855V73ZM521.047 1.47999V-0.520006H519.612L519.152 0.839153L521.047 1.47999ZM540.823 1.47999L542.717 0.839153L542.258 -0.520006H540.823V1.47999ZM565.015 73V75H567.803L566.909 72.3592L565.015 73ZM548.791 73L546.891 73.625L547.343 75H548.791V73ZM543.991 58.408L545.891 57.783L545.438 56.408H543.991V58.408ZM517.783 58.408V56.408H516.335L515.883 57.783L517.783 58.408ZM512.983 73V75H514.43L514.883 73.625L512.983 73ZM521.911 45.448L520.01 44.8269L519.153 47.448H521.911V45.448ZM539.863 45.448V47.448H542.613L541.765 44.8318L539.863 45.448ZM528.919 11.656V9.65599H526.169L527.016 12.2722L528.919 11.656ZM532.951 11.656L534.852 12.2771L535.708 9.65599H532.951V11.656ZM498.749 73.6408L522.941 2.12084L519.152 0.839153L494.96 72.3592L498.749 73.6408ZM521.047 3.47999H540.823V-0.520006H521.047V3.47999ZM538.928 2.12084L563.12 73.6408L566.909 72.3592L542.717 0.839153L538.928 2.12084ZM565.015 71H548.791V75H565.015V71ZM550.691 72.375L545.891 57.783L542.091 59.033L546.891 73.625L550.691 72.375ZM543.991 56.408H517.783V60.408H543.991V56.408ZM515.883 57.783L511.083 72.375L514.883 73.625L519.683 59.033L515.883 57.783ZM512.983 71H496.855V75H512.983V71ZM521.911 47.448H539.863V43.448H521.911V47.448ZM541.765 44.8318L530.821 11.0398L527.016 12.2722L537.96 46.0642L541.765 44.8318ZM528.919 13.656H532.951V9.65599H528.919V13.656ZM531.05 11.0349L520.01 44.8269L523.812 46.0691L534.852 12.2771L531.05 11.0349ZM580.127 73H578.127V75H580.127V73ZM580.127 1.47999V-0.520006H578.127V1.47999H580.127ZM623.615 6.088L622.666 7.8483L622.666 7.8483L623.615 6.088ZM636.863 18.76L635.136 19.7677L635.136 19.7677L636.863 18.76ZM636.863 55.72L638.591 56.7278L638.596 56.7189L636.863 55.72ZM623.615 68.392L624.565 70.1523L624.565 70.1523L623.615 68.392ZM595.007 60.04H593.007V62.04H595.007V60.04ZM615.935 57.256L616.895 59.0105L616.908 59.0036L616.92 58.9965L615.935 57.256ZM623.807 49.288L622.059 48.3167L622.053 48.328L623.807 49.288ZM623.807 25.096L622.053 26.056L622.06 26.0687L622.067 26.0812L623.807 25.096ZM595.007 14.44V12.44H593.007V14.44H595.007ZM582.127 73V1.47999H578.127V73H582.127ZM580.127 3.47999H603.455V-0.520006H580.127V3.47999ZM603.455 3.47999C610.933 3.47999 617.314 4.9618 622.666 7.8483L624.565 4.32769C618.525 1.07019 611.466 -0.520006 603.455 -0.520006V3.47999ZM622.666 7.8483C628.052 10.753 632.193 14.7224 635.136 19.7677L638.591 17.7523C635.262 12.0456 630.571 7.56695 624.565 4.32769L622.666 7.8483ZM635.136 19.7677C638.074 24.805 639.567 30.594 639.567 37.192H643.567C643.567 29.966 641.924 23.467 638.591 17.7523L635.136 19.7677ZM639.567 37.192C639.567 43.7897 638.074 49.6149 635.131 54.7211L638.596 56.7189C641.924 50.9451 643.567 44.4183 643.567 37.192H639.567ZM635.136 54.7123C632.193 59.7576 628.052 63.727 622.666 66.6317L624.565 70.1523C630.571 66.913 635.262 62.4344 638.591 56.7277L635.136 54.7123ZM622.666 66.6317C617.314 69.5182 610.933 71 603.455 71V75C611.466 75 618.525 73.4098 624.565 70.1523L622.666 66.6317ZM603.455 71H580.127V75H603.455V71ZM595.007 62.04H603.839V58.04H595.007V62.04ZM603.839 62.04C608.777 62.04 613.153 61.0579 616.895 59.0105L614.975 55.5015C611.933 57.1661 608.245 58.04 603.839 58.04V62.04ZM616.92 58.9965C620.634 56.8946 623.525 53.9695 625.562 50.248L622.053 48.328C620.377 51.3905 618.021 53.7774 614.95 55.5155L616.92 58.9965ZM625.556 50.2593C627.666 46.4603 628.687 42.0832 628.687 37.192H624.687C624.687 41.5168 623.788 45.2037 622.059 48.3167L625.556 50.2593ZM628.687 37.192C628.687 32.2433 627.669 27.8578 625.548 24.1108L622.067 26.0812C623.786 29.1182 624.687 32.7967 624.687 37.192H628.687ZM625.562 24.136C623.522 20.4087 620.623 17.5089 616.895 15.4695L614.975 18.9785C618.032 20.651 620.38 22.9993 622.053 26.056L625.562 24.136ZM616.895 15.4695C613.153 13.4221 608.777 12.44 603.839 12.44V16.44C608.245 16.44 611.933 17.3139 614.975 18.9785L616.895 15.4695ZM603.839 12.44H595.007V16.44H603.839V12.44ZM593.007 14.44V60.04H597.007V14.44H593.007ZM683.706 73H681.706V75H683.706V73ZM683.706 1.47999V-0.520006H681.706V1.47999H683.706ZM724.122 4.07199L723.29 5.89065L723.301 5.89584L724.122 4.07199ZM733.146 11.752L731.463 12.8319L731.463 12.8319L733.146 11.752ZM733.05 36.808L734.719 37.9101L734.724 37.903L734.728 37.8958L733.05 36.808ZM724.026 44.488L723.194 42.6694L721.202 43.5808L722.29 45.4815L724.026 44.488ZM740.346 73V75H743.795L742.082 72.0065L740.346 73ZM723.642 73L721.896 73.9762L722.469 75H723.642V73ZM705.978 41.416L706.994 39.6935L700.62 35.9324L704.232 42.3922L705.978 41.416ZM715.578 47.08V49.08H722.904L716.594 45.3575L715.578 47.08ZM698.586 47.08V45.08H696.586V47.08H698.586ZM698.586 73V75H700.586V73H698.586ZM698.586 34.12H696.586V36.12H698.586V34.12ZM716.634 32.872L717.587 34.6306L717.587 34.6306L716.634 32.872ZM720.186 29.416L718.478 28.3761L718.461 28.4037L718.445 28.4319L720.186 29.416ZM720.186 19.144L718.445 20.1281L718.461 20.1563L718.478 20.1839L720.186 19.144ZM716.634 15.688L715.681 17.4466L715.681 17.4466L716.634 15.688ZM698.586 14.44V12.44H696.586V14.44H698.586ZM685.706 73V1.47999H681.706V73H685.706ZM683.706 3.47999H711.066V-0.520006H683.706V3.47999ZM711.066 3.47999C715.76 3.47999 719.819 4.30236 723.29 5.89061L724.954 2.25338C720.873 0.385628 716.228 -0.520006 711.066 -0.520006V3.47999ZM723.301 5.89584C726.804 7.47225 729.506 9.78137 731.463 12.8319L734.829 10.6721C732.434 6.93863 729.12 4.12774 724.943 2.24815L723.301 5.89584ZM731.463 12.8319C733.387 15.8325 734.41 19.6274 734.41 24.328H738.41C738.41 19.0446 737.256 14.4555 734.829 10.6721L731.463 12.8319ZM734.41 24.328C734.41 28.877 733.366 32.643 731.372 35.7202L734.728 37.8958C737.214 34.061 738.41 29.507 738.41 24.328H734.41ZM731.381 35.7059C729.352 38.7784 726.637 41.0936 723.194 42.6694L724.858 46.3066C728.967 44.4264 732.268 41.6216 734.719 37.9101L731.381 35.7059ZM722.29 45.4815L738.61 73.9935L742.082 72.0065L725.762 43.4945L722.29 45.4815ZM740.346 71H723.642V75H740.346V71ZM725.388 72.0238L707.724 40.4398L704.232 42.3922L721.896 73.9762L725.388 72.0238ZM704.962 43.1385L714.562 48.8025L716.594 45.3575L706.994 39.6935L704.962 43.1385ZM715.578 45.08H698.586V49.08H715.578V45.08ZM696.586 47.08V73H700.586V47.08H696.586ZM698.586 71H683.706V75H698.586V71ZM698.586 36.12H711.162V32.12H698.586V36.12ZM711.162 36.12C713.538 36.12 715.703 35.6509 717.587 34.6306L715.681 31.1134C714.493 31.757 713.01 32.12 711.162 32.12V36.12ZM717.587 34.6306C719.441 33.6259 720.904 32.2104 721.927 30.4001L718.445 28.4319C717.804 29.5656 716.899 30.4541 715.681 31.1134L717.587 34.6306ZM721.894 30.4559C723.002 28.6357 723.53 26.5717 723.53 24.328H719.53C719.53 25.9243 719.162 27.2523 718.478 28.3761L721.894 30.4559ZM723.53 24.328C723.53 22.0337 723.009 19.9344 721.894 18.1041L718.478 20.1839C719.155 21.2975 719.53 22.6543 719.53 24.328H723.53ZM721.927 18.1599C720.904 16.3496 719.441 14.9341 717.587 13.9294L715.681 17.4466C716.899 18.1059 717.804 18.9944 718.445 20.1281L721.927 18.1599ZM717.587 13.9294C715.703 12.909 713.538 12.44 711.162 12.44V16.44C713.01 16.44 714.493 16.8029 715.681 17.4466L717.587 13.9294ZM711.162 12.44H698.586V16.44H711.162V12.44ZM696.586 14.44V34.12H700.586V14.44H696.586ZM755.417 73H753.417V75H755.417V73ZM755.417 1.47999V-0.520006H753.417V1.47999H755.417ZM803.513 1.47999H805.513V-0.520006H803.513V1.47999ZM803.513 14.44V16.44H805.513V14.44H803.513ZM770.297 14.44V12.44H768.297V14.44H770.297ZM770.297 30.664H768.297V32.664H770.297V30.664ZM801.593 30.664H803.593V28.664H801.593V30.664ZM801.593 43.624V45.624H803.593V43.624H801.593ZM770.297 43.624V41.624H768.297V43.624H770.297ZM770.297 60.04H768.297V62.04H770.297V60.04ZM803.513 60.04H805.513V58.04H803.513V60.04ZM803.513 73V75H805.513V73H803.513ZM757.417 73V1.47999H753.417V73H757.417ZM755.417 3.47999H803.513V-0.520006H755.417V3.47999ZM801.513 1.47999V14.44H805.513V1.47999H801.513ZM803.513 12.44H770.297V16.44H803.513V12.44ZM768.297 14.44V30.664H772.297V14.44H768.297ZM770.297 32.664H801.593V28.664H770.297V32.664ZM799.593 30.664V43.624H803.593V30.664H799.593ZM801.593 41.624H770.297V45.624H801.593V41.624ZM768.297 43.624V60.04H772.297V43.624H768.297ZM770.297 62.04H803.513V58.04H770.297V62.04ZM801.513 60.04V73H805.513V60.04H801.513ZM803.513 71H755.417V75H803.513V71ZM832.972 71.752L832.188 73.5918L832.206 73.5995L832.225 73.6069L832.972 71.752ZM822.796 64.744L821.336 66.1108L821.344 66.119L821.352 66.1271L822.796 64.744ZM816.46 54.088L815.642 52.2634L813.975 53.0111L814.569 54.7382L816.46 54.088ZM828.652 48.616L830.47 47.7817L829.643 45.9793L827.834 46.7914L828.652 48.616ZM836.044 57.832L834.882 59.4595L834.89 59.465L834.898 59.4705L836.044 57.832ZM851.884 60.232L852.682 62.0661L852.682 62.0661L851.884 60.232ZM855.34 57.64L856.929 58.8549L856.946 58.8332L856.962 58.811L855.34 57.64ZM855.052 49.384L853.523 50.6723L853.54 50.6927L853.558 50.7127L855.052 49.384ZM850.252 46.504L849.628 48.404L849.637 48.4069L850.252 46.504ZM836.236 41.896L836.861 39.996L836.856 39.9944L836.236 41.896ZM823.372 34.024L821.836 35.3044L821.842 35.3114L821.848 35.3185L823.372 34.024ZM822.124 10.504L820.455 9.40231L820.448 9.41405L820.44 9.42589L822.124 10.504ZM830.86 3.016L830.003 1.20911L829.991 1.21489L830.86 3.016ZM855.724 2.536L856.473 0.681297L856.473 0.681296L855.724 2.536ZM865.132 8.776L863.701 10.1731L863.71 10.1817L863.718 10.1902L865.132 8.776ZM871.18 18.472L872.005 20.2942L873.682 19.5355L873.065 17.8013L871.18 18.472ZM859.084 23.944L857.23 24.6929L858.01 26.6251L859.909 25.7662L859.084 23.944ZM853.036 16.168L851.874 17.7955L851.887 17.8047L851.9 17.8138L853.036 16.168ZM838.54 14.248L839.31 16.0941L839.31 16.0941L838.54 14.248ZM834.988 17.032L836.61 18.203L836.625 18.1824L836.639 18.1614L834.988 17.032ZM835.372 25.48L833.849 26.7753L833.865 26.7947L833.882 26.8136L835.372 25.48ZM840.268 28.36L839.653 30.2629L839.656 30.2639L840.268 28.36ZM853.996 32.776L854.61 30.8724L854.609 30.8721L853.996 32.776ZM866.86 40.552L865.334 41.8439L865.341 41.8524L865.348 41.8608L866.86 40.552ZM867.916 63.88L869.57 65.0046L869.575 64.997L869.581 64.9894L867.916 63.88ZM858.892 71.464L859.75 73.2709L859.756 73.2678L859.763 73.2647L858.892 71.464ZM845.644 72.152C841.409 72.152 837.44 71.3968 833.72 69.8971L832.225 73.6069C836.441 75.3072 840.92 76.152 845.644 76.152V72.152ZM833.757 69.9122C830.097 68.3521 826.93 66.1698 824.241 63.3609L821.352 66.1271C824.422 69.3342 828.04 71.8239 832.188 73.5918L833.757 69.9122ZM824.257 63.3772C821.643 60.5855 819.673 57.2811 818.352 53.4378L814.569 54.7382C816.064 59.0869 818.318 62.8865 821.336 66.1108L824.257 63.3772ZM817.279 55.9126L829.471 50.4406L827.834 46.7914L815.642 52.2634L817.279 55.9126ZM826.835 49.4503C828.755 53.6342 831.431 56.9942 834.882 59.4595L837.207 56.2045C834.386 54.1898 832.134 51.4058 830.47 47.7817L826.835 49.4503ZM834.898 59.4705C838.428 61.9414 842.347 63.192 846.604 63.192V59.192C843.182 59.192 840.061 58.2026 837.191 56.1935L834.898 59.4705ZM846.604 63.192C848.854 63.192 850.899 62.8413 852.682 62.0661L851.087 58.3979C849.926 58.9027 848.451 59.192 846.604 59.192V63.192ZM852.682 62.0661C854.412 61.3139 855.857 60.2564 856.929 58.8549L853.752 56.4251C853.16 57.1996 852.301 57.8701 851.087 58.3979L852.682 62.0661ZM856.962 58.811C858.06 57.2901 858.588 55.5285 858.588 53.608H854.588C854.588 54.7595 854.285 55.6859 853.719 56.469L856.962 58.811ZM858.588 53.608C858.588 51.4965 857.924 49.6038 856.547 48.0553L853.558 50.7127C854.229 51.4682 854.588 52.3915 854.588 53.608H858.588ZM856.582 48.0957C855.233 46.4939 853.252 45.3725 850.868 44.6011L849.637 48.4069C851.605 49.0435 852.824 49.8421 853.523 50.6723L856.582 48.0957ZM850.877 44.604L836.861 39.996L835.612 43.796L849.628 48.404L850.877 44.604ZM836.856 39.9944C831.394 38.2146 827.468 35.7576 824.897 32.7295L821.848 35.3185C825.037 39.0744 829.687 41.8654 835.617 43.7976L836.856 39.9944ZM824.909 32.7436C822.349 29.6722 821.052 26.0059 821.052 21.64H817.052C817.052 26.8741 818.636 31.4638 821.836 35.3044L824.909 32.7436ZM821.052 21.64C821.052 17.754 821.99 14.425 823.809 11.5821L820.44 9.42589C818.163 12.983 817.052 17.078 817.052 21.64H821.052ZM823.794 11.6057C825.692 8.72924 828.317 6.46452 831.73 4.8171L829.991 1.21489C825.979 3.15147 822.781 5.87875 820.455 9.40231L823.794 11.6057ZM831.718 4.82285C835.186 3.17724 839.205 2.328 843.82 2.328V-1.672C838.708 -1.672 834.087 -0.729245 830.003 1.20915L831.718 4.82285ZM843.82 2.328C847.875 2.328 851.587 3.02299 854.976 4.3907L856.473 0.681296C852.566 -0.894992 848.342 -1.672 843.82 -1.672V2.328ZM854.976 4.3907C858.38 5.76407 861.28 7.69257 863.701 10.1731L866.564 7.37892C863.737 4.48342 860.365 2.25193 856.473 0.681297L854.976 4.3907ZM863.718 10.1902C866.185 12.6569 868.046 15.6307 869.296 19.1426L873.065 17.8013C871.627 13.7613 869.456 10.2711 866.547 7.36178L863.718 10.1902ZM870.356 16.6498L858.26 22.1218L859.909 25.7662L872.005 20.2942L870.356 16.6498ZM860.939 23.1951C859.464 19.5416 857.214 16.6223 854.173 14.5222L851.9 17.8138C854.235 19.4257 856.017 21.6904 857.23 24.6929L860.939 23.1951ZM854.199 14.5405C851.155 12.3666 847.673 11.288 843.82 11.288V15.288C846.88 15.288 849.542 16.1294 851.874 17.7955L854.199 14.5405ZM843.82 11.288C841.622 11.288 839.593 11.6427 837.771 12.4018L839.31 16.0941C840.56 15.5733 842.051 15.288 843.82 15.288V11.288ZM837.771 12.4018C835.926 13.1707 834.416 14.3275 833.338 15.9026L836.639 18.1614C837.225 17.3045 838.083 16.6053 839.31 16.0941L837.771 12.4018ZM833.367 15.861C832.269 17.3819 831.74 19.1435 831.74 21.064H835.74C835.74 19.9125 836.044 18.9861 836.61 18.203L833.367 15.861ZM831.74 21.064C831.74 23.2075 832.456 25.1375 833.849 26.7753L836.896 24.1847C836.112 23.2625 835.74 22.2485 835.74 21.064H831.74ZM833.882 26.8136C835.282 28.3786 837.269 29.4915 839.653 30.2629L840.884 26.4571C838.916 25.8205 837.639 25.0134 836.863 24.1464L833.882 26.8136ZM839.656 30.2639L853.384 34.6799L854.609 30.8721L840.881 26.4561L839.656 30.2639ZM853.383 34.6796C858.92 36.4637 862.835 38.8914 865.334 41.8439L868.387 39.2601C865.254 35.5566 860.593 32.8003 854.61 30.8724L853.383 34.6796ZM865.348 41.8608C867.884 44.7913 869.18 48.3777 869.18 52.744H873.18C873.18 47.5103 871.597 42.9687 868.373 39.2432L865.348 41.8608ZM869.18 52.744C869.18 56.5343 868.196 59.8554 866.252 62.7706L869.581 64.9894C871.989 61.3766 873.18 57.2737 873.18 52.744H869.18ZM866.263 62.7554C864.304 65.6362 861.579 67.944 858.022 69.6633L859.763 73.2647C863.886 71.272 867.177 68.5238 869.57 65.0046L866.263 62.7554ZM858.035 69.6571C854.577 71.2981 850.465 72.152 845.644 72.152V76.152C850.936 76.152 855.656 75.2139 859.75 73.2709L858.035 69.6571ZM902.809 70.6L901.864 72.3626L901.864 72.3626L902.809 70.6ZM892.345 60.904L890.63 61.933L890.639 61.9486L890.649 61.964L892.345 60.904ZM888.601 1.47999V-0.520006H886.601V1.47999H888.601ZM903.481 1.47999H905.481V-0.520006H903.481V1.47999ZM905.305 53.512L903.536 54.4455L903.552 54.4752L903.568 54.5043L905.305 53.512ZM910.489 58.792L911.503 57.0681L911.503 57.0681L910.489 58.792ZM925.273 58.792L924.259 57.0681L924.247 57.0748L924.236 57.0816L925.273 58.792ZM930.361 53.512L928.612 52.5407L928.608 52.5492L928.603 52.5578L930.361 53.512ZM932.281 1.47999V-0.520006H930.281V1.47999H932.281ZM947.161 1.47999H949.161V-0.520006H947.161V1.47999ZM943.321 60.904L941.617 59.8558L941.613 59.8633L943.321 60.904ZM932.953 70.6L933.898 72.3626L933.898 72.3626L932.953 70.6ZM917.881 72.152C912.537 72.152 907.845 71.0311 903.754 68.8374L901.864 72.3626C906.605 74.9049 911.96 76.152 917.881 76.152V72.152ZM903.754 68.8374C899.633 66.6277 896.409 63.633 894.041 59.844L890.649 61.964C893.401 66.367 897.152 69.8363 901.864 72.3626L903.754 68.8374ZM894.06 59.875C891.765 56.0511 890.601 51.7082 890.601 46.792H886.601C886.601 52.3718 887.932 57.4369 890.63 61.933L894.06 59.875ZM890.601 46.792V1.47999H886.601V46.792H890.601ZM888.601 3.47999H903.481V-0.520006H888.601V3.47999ZM901.481 1.47999V45.832H905.481V1.47999H901.481ZM901.481 45.832C901.481 48.9464 902.156 51.8308 903.536 54.4455L907.073 52.5785C906.021 50.5852 905.481 48.3496 905.481 45.832H901.481ZM903.568 54.5043C905.017 57.04 906.991 59.0551 909.475 60.5159L911.503 57.0681C909.634 55.9689 908.152 54.464 907.041 52.5197L903.568 54.5043ZM909.475 60.5159C911.985 61.9928 914.805 62.712 917.881 62.712V58.712C915.452 58.712 913.344 58.1512 911.503 57.0681L909.475 60.5159ZM917.881 62.712C921.01 62.712 923.843 61.9972 926.309 60.5024L924.236 57.0816C922.479 58.1468 920.384 58.712 917.881 58.712V62.712ZM926.287 60.5159C928.779 59.0498 930.731 57.0223 932.118 54.4662L928.603 52.5578C927.559 54.4817 926.118 55.9742 924.259 57.0681L926.287 60.5159ZM932.109 54.4833C933.565 51.8619 934.281 48.9639 934.281 45.832H930.281C930.281 48.3321 929.716 50.5541 928.612 52.5407L932.109 54.4833ZM934.281 45.832V1.47999H930.281V45.832H934.281ZM932.281 3.47999H947.161V-0.520006H932.281V3.47999ZM945.161 1.47999V46.792H949.161V1.47999H945.161ZM945.161 46.792C945.161 51.6985 943.969 56.0345 941.617 59.8558L945.024 61.9522C947.793 57.4534 949.161 52.3815 949.161 46.792H945.161ZM941.613 59.8633C939.311 63.6411 936.124 66.63 932.008 68.8374L933.898 72.3626C938.613 69.834 942.339 66.3589 945.029 61.9447L941.613 59.8633ZM932.008 68.8374C927.917 71.0311 923.224 72.152 917.881 72.152V76.152C923.801 76.152 929.157 74.9049 933.898 72.3626L932.008 68.8374ZM966.614 73H964.614V75H966.614V73ZM966.614 1.47999V-0.520006H964.614V1.47999H966.614ZM981.014 1.47999L982.61 0.275855L982.01 -0.520006H981.014V1.47999ZM1007.8 37V39H1011.81L1009.39 35.7959L1007.8 37ZM1001.08 37L999.464 35.8182L997.134 39H1001.08V37ZM1027.09 1.47999V-0.520006H1026.08L1025.48 0.298212L1027.09 1.47999ZM1041.49 1.47999H1043.49V-0.520006H1041.49V1.47999ZM1041.49 73V75H1043.49V73H1041.49ZM1026.61 73H1024.61V75H1026.61V73ZM1026.61 17.896L1027.05 15.9451L1024.61 15.394V17.896H1026.61ZM1032.57 19.24L1034.15 20.4658L1036.07 17.9816L1033.01 17.2891L1032.57 19.24ZM1005.01 54.76V56.76H1005.99L1006.59 55.9858L1005.01 54.76ZM1003.09 54.76L1001.49 55.9586L1002.09 56.76H1003.09V54.76ZM976.502 19.24L975.982 17.3088L973.132 18.076L974.9 20.4386L976.502 19.24ZM981.494 17.896H983.494V15.2863L980.974 15.9648L981.494 17.896ZM981.494 73V75H983.494V73H981.494ZM968.614 73V1.47999H964.614V73H968.614ZM966.614 3.47999H981.014V-0.520006H966.614V3.47999ZM979.417 2.68413L1006.2 38.2041L1009.39 35.7959L982.61 0.275855L979.417 2.68413ZM1007.8 35H1001.08V39H1007.8V35ZM1002.69 38.1818L1028.71 2.66178L1025.48 0.298212L999.464 35.8182L1002.69 38.1818ZM1027.09 3.47999H1041.49V-0.520006H1027.09V3.47999ZM1039.49 1.47999V73H1043.49V1.47999H1039.49ZM1041.49 71H1026.61V75H1041.49V71ZM1028.61 73V17.896H1024.61V73H1028.61ZM1026.17 19.8469L1032.13 21.1909L1033.01 17.2891L1027.05 15.9451L1026.17 19.8469ZM1030.99 18.0142L1003.43 53.5342L1006.59 55.9858L1034.15 20.4658L1030.99 18.0142ZM1005.01 52.76H1003.09V56.76H1005.01V52.76ZM1004.69 53.5614L978.103 18.0414L974.9 20.4386L1001.49 55.9586L1004.69 53.5614ZM977.021 21.1712L982.013 19.8272L980.974 15.9648L975.982 17.3088L977.021 21.1712ZM979.494 17.896V73H983.494V17.896H979.494ZM981.494 71H966.614V75H981.494V71ZM1061.86 73H1059.86V75H1061.86V73ZM1061.86 1.47999V-0.520006H1059.86V1.47999H1061.86ZM1109.95 1.47999H1111.95V-0.520006H1109.95V1.47999ZM1109.95 14.44V16.44H1111.95V14.44H1109.95ZM1076.74 14.44V12.44H1074.74V14.44H1076.74ZM1076.74 30.664H1074.74V32.664H1076.74V30.664ZM1108.03 30.664H1110.03V28.664H1108.03V30.664ZM1108.03 43.624V45.624H1110.03V43.624H1108.03ZM1076.74 43.624V41.624H1074.74V43.624H1076.74ZM1076.74 60.04H1074.74V62.04H1076.74V60.04ZM1109.95 60.04H1111.95V58.04H1109.95V60.04ZM1109.95 73V75H1111.95V73H1109.95ZM1063.86 73V1.47999H1059.86V73H1063.86ZM1061.86 3.47999H1109.95V-0.520006H1061.86V3.47999ZM1107.95 1.47999V14.44H1111.95V1.47999H1107.95ZM1109.95 12.44H1076.74V16.44H1109.95V12.44ZM1074.74 14.44V30.664H1078.74V14.44H1074.74ZM1076.74 32.664H1108.03V28.664H1076.74V32.664ZM1106.03 30.664V43.624H1110.03V30.664H1106.03ZM1108.03 41.624H1076.74V45.624H1108.03V41.624ZM1074.74 43.624V60.04H1078.74V43.624H1074.74ZM1076.74 62.04H1109.95V58.04H1076.74V62.04ZM1107.95 60.04V73H1111.95V60.04H1107.95ZM1109.95 71H1061.86V75H1109.95V71Z" fill="#D41CEE" mask="url(#path-1-outside-1_1_2)"/>
<defs>
<linearGradient id="paint0_linear_1_2" x1="553.5" y1="1" x2="553.5" y2="73" gradientUnits="userSpaceOnUse">
<stop offset="0.125" stop-color="#3F0048"/>
<stop offset="1" stop-color="#7208FE"/>
</linearGradient>
</defs>
</svg>
