<svg width="26" height="28" viewBox="0 0 26 28" fill="none" xmlns="http://www.w3.org/2000/svg">
<path d="M22.9525 19.6656C23.4203 19.9421 23.8125 20.1886 24.1328 20.3995C24.7342 20.7946 24.7342 21.6074 24.1328 22.0026C23.2112 22.6085 21.6968 23.5135 19.4963 24.5613C16.6899 25.8977 14.441 26.5365 13.3333 26.8015C12.8407 26.9197 12.3271 26.9197 11.8345 26.8015C10.7268 26.5365 8.47795 25.8971 5.67151 24.5607C3.47106 23.5135 1.95667 22.608 1.03502 22.0026C0.43364 21.6074 0.43364 20.7946 1.03502 20.3995C1.42256 20.1455 1.81611 19.9008 2.21531 19.6656" stroke="#D41CEE" stroke-linecap="round" stroke-linejoin="round"/>
<path d="M22.9525 12.4404C23.4203 12.7169 23.812 12.9646 24.1328 13.1748C24.7342 13.57 24.7342 14.3828 24.1328 14.7779C23.2112 15.3839 21.6962 16.2888 19.4958 17.3367C16.6893 18.673 14.4411 19.3119 13.3334 19.5768C12.8405 19.6951 12.3267 19.6951 11.8339 19.5768C10.7268 19.3119 8.47797 18.6725 5.67153 17.3361C3.47109 16.2888 1.95612 15.3833 1.03446 14.7779C0.433662 14.3828 0.433662 13.57 1.03446 13.1748C1.42219 12.9206 1.81593 12.6758 2.21533 12.4404" stroke="#D41CEE" stroke-linecap="round" stroke-linejoin="round"/>
<path d="M11.8345 1.15072C12.3271 1.03252 12.8407 1.03252 13.3333 1.15072C14.441 1.4157 16.6899 2.05452 19.4963 3.39092C21.6968 4.4393 23.2112 5.34367 24.1328 5.94966C24.7342 6.34482 24.7342 7.1576 24.1328 7.55276C23.2112 8.15875 21.6968 9.06369 19.4963 10.1115C16.6899 11.4479 14.441 12.0867 13.3333 12.3517C12.8407 12.4699 12.3271 12.4699 11.8345 12.3517C10.7268 12.0867 8.47795 11.4473 5.67151 10.1109C3.47106 9.06369 1.95667 8.15817 1.03502 7.55276C0.43364 7.1576 0.43364 6.34482 1.03502 5.94966C1.95667 5.34367 3.47106 4.43872 5.67151 3.39092C8.47795 2.05452 10.7268 1.41512 11.8345 1.15072Z" stroke="#D41CEE" stroke-linecap="round" stroke-linejoin="round"/>
</svg>
