<svg width="264" height="536" viewBox="0 0 264 536" fill="none" xmlns="http://www.w3.org/2000/svg">
<rect width="264" height="536" rx="35" fill="white"/>
<path fill-rule="evenodd" clip-rule="evenodd" d="M84.4346 15C86.2051 15 87.648 16.4019 87.7127 18.1557L87.715 18.2786V17.9131L87.7171 18.1826C87.7547 23.0275 88.2903 24.9228 89.2658 26.7775L89.3215 26.8824C90.3698 28.8415 91.9081 30.379 93.8682 31.4267C95.8283 32.4744 97.7726 33.0324 103.134 33.0324H160.866C166.227 33.0324 168.172 32.4744 170.132 31.4267C172.092 30.379 173.63 28.8415 174.679 26.8824C175.727 24.9233 176.285 22.9801 176.285 17.6214V17.6759V18.2786L176.287 18.1557C176.352 16.4019 177.795 15 179.565 15L211.854 15C224.77 15 229.454 16.3442 234.176 18.8682C238.898 21.3923 242.604 25.0963 245.13 29.8158C247.655 34.5354 249 39.2168 249 52.1265V483.874C249 496.783 247.655 501.465 245.13 506.184C242.604 510.904 238.898 514.608 234.176 517.132C229.454 519.656 224.77 521 211.854 521H52.1464C39.2298 521 34.5459 519.656 29.8238 517.132C25.1017 514.608 21.3957 510.904 18.8703 506.184C16.3701 501.512 15.027 496.877 15.0004 484.258L15 52.1265C15 39.2168 16.3449 34.5354 18.8703 29.8158C21.3957 25.0963 25.1017 21.3923 29.8238 18.8682C34.4987 16.3694 39.1361 15.027 51.7613 15.0004L84.4346 15Z" fill="url(#paint0_linear_2_97)"/>
<rect x="36" y="136.5" width="192" height="53" rx="11" stroke="white" stroke-width="2" stroke-dasharray="9 9"/>
<rect x="36" y="211.5" width="192" height="134" rx="11" stroke="white" stroke-width="2" stroke-dasharray="9 9"/>
<rect x="36" y="367.5" width="85" height="53" rx="11" stroke="white" stroke-width="2" stroke-dasharray="9 9"/>
<rect x="143" y="367.5" width="85" height="53" rx="11" stroke="white" stroke-width="2" stroke-dasharray="9 9"/>
<defs>
<linearGradient id="paint0_linear_2_97" x1="132" y1="15" x2="132" y2="521" gradientUnits="userSpaceOnUse">
<stop stop-color="#D41CEE"/>
<stop offset="1" stop-color="#7208FE"/>
</linearGradient>
</defs>
</svg>
